<?xml version="1.0" encoding="UTF-8" standalone="no"?>
<svg
   xmlns:dc="http://purl.org/dc/elements/1.1/"
   xmlns:cc="http://creativecommons.org/ns#"
   xmlns:rdf="http://www.w3.org/1999/02/22-rdf-syntax-ns#"
   xmlns:svg="http://www.w3.org/2000/svg"
   xmlns="http://www.w3.org/2000/svg"
   xmlns:xlink="http://www.w3.org/1999/xlink"
   xmlns:sodipodi="http://sodipodi.sourceforge.net/DTD/sodipodi-0.dtd"
   xmlns:inkscape="http://www.inkscape.org/namespaces/inkscape"
   id="svg8"
   version="1.1"
   viewBox="0 0 19.610834 19.625586"
   height="19.625586mm"
   width="19.610836mm"
   sodipodi:docname="application-logo.svg"
   inkscape:version="0.92.4 (5da689c313, 2019-01-14)">
  <metadata
     id="metadata38">
    <rdf:RDF>
      <cc:Work
         rdf:about="">
        <dc:format>image/svg+xml</dc:format>
        <dc:type
           rdf:resource="http://purl.org/dc/dcmitype/StillImage" />
        <dc:title></dc:title>
      </cc:Work>
    </rdf:RDF>
  </metadata>
  <sodipodi:namedview
     pagecolor="#ffffff"
     bordercolor="#666666"
     borderopacity="1"
     objecttolerance="10"
     gridtolerance="10"
     guidetolerance="10"
     inkscape:pageopacity="0"
     inkscape:pageshadow="2"
     inkscape:window-width="1920"
     inkscape:window-height="986"
     id="namedview36"
     showgrid="false"
     inkscape:pagecheckerboard="true"
     fit-margin-top="0"
     fit-margin-left="0"
     fit-margin-right="0"
     fit-margin-bottom="0"
     inkscape:zoom="2.8871127"
     inkscape:cx="70.983246"
     inkscape:cy="32.189708"
     inkscape:window-x="-11"
     inkscape:window-y="-11"
     inkscape:window-maximized="1"
     inkscape:current-layer="svg8" />
  <defs
     id="defs2">
    <linearGradient
       id="linearGradient918">
      <stop
         id="stop914"
         offset="0"
         style="stop-color:#4ea45b;stop-opacity:1" />
      <stop
         id="stop916"
         offset="1"
         style="stop-color:#80e498;stop-opacity:1" />
    </linearGradient>
    <linearGradient
       gradientTransform="matrix(0.24787196,0,0,0.24787196,-11.171675,-3.942764)"
       gradientUnits="userSpaceOnUse"
       y2="86.708412"
       x2="56.838287"
       y1="25.318918"
       x1="111.39603"
       id="linearGradient920"
       xlink:href="#linearGradient918" />
  </defs>
  <path
     inkscape:connector-curvature="0"
     d="m 9.4022621,0.037207 c 0,0 1.1417429,0.307029 1.1417429,0.307029 0.576812,0.173683 1.350006,0.509682 1.872466,0.808811 2.180733,1.247253 3.792879,3.069461 4.881645,5.323744 0.192286,0.397772 0.364901,0.814745 0.507395,1.233086 0,0 0.319666,0.959059 0.319666,0.959059 0.508311,-0.372203 0.682309,-1.131709 0.685051,-1.735434 9.28e-4,-0.333866 0.0083,-0.873684 -0.08174,-1.187414 C 18.618408,5.360151 18.089111,4.547707 17.851164,4.193306 16.608495,2.341395 14.640582,0.991832 12.507796,0.38354 11.953366,0.225525 11.068745,0.044174 10.498329,0.03734 10.498329,0.03734 9.8132841,0 9.8132841,0 c 0,0 -0.41103,0.03734 -0.41103,0.03734 z m -7.626859,4.201637 c 0.348917,-0.04634 0.449393,-0.09101 0.822059,-0.09134 1.386079,-0.0016 2.684928,0.567188 3.927601,1.128008 1.389736,0.626627 2.768962,1.31166 4.1102879,2.037363 1.005189,0.543452 2.178448,1.156344 3.242554,1.557782 0.60375,0.2280217 1.26734,0.4366087 1.918135,0.4375097 0,0 0.411025,0 0.411025,0 0.439344,-0.0033 0.811547,-0.143348 1.233081,-0.228356 C 17.380346,8.369643 16.776106,6.996811 16.446832,6.339614 15.227909,3.908148 12.971358,1.879953 10.406995,0.964732 9.6502501,0.694373 8.5605681,0.412112 7.7581511,0.402545 c 0,0 -0.411033,0 -0.411033,0 -0.464461,0.0011 -0.763596,0.14068 -1.18741,0.310363 -0.854942,0.342999 -1.444996,0.674098 -2.192151,1.21575 -0.574989,0.41694 -1.096075,0.90472 -1.55871,1.442238 -0.21372,0.248357 -0.506025,0.568589 -0.633444,0.86775 z M 17.622832,9.9018867 c -0.661759,0.1873513 -0.676829,0.3136963 -1.461437,0.3160303 0,0 -0.730719,0 -0.730719,0 -0.621108,-0.06434 -1.847796,-0.3699023 -2.420497,-0.6110583 0,0 -0.456698,-0.241023 -0.456698,-0.241023 0,0 -1.598443,-0.8659167 -1.598443,-0.8659167 0,0 -1.6441179,-0.93349 -1.6441179,-0.93349 0,0 -1.963802,-1.058168 -1.963802,-1.058168 C 6.3757211,5.983077 4.9380371,5.27701 3.8762151,5.010284 3.3802371,4.885939 2.9641881,4.865604 2.4604521,4.8286 c 0,0 -0.59371,-0.04167 -0.59371,-0.04167 -0.138846,0.0016 -0.368552,0.01 -0.48501,0.09034 -0.167616,0.114344 -0.44985001,0.751272 -0.53890501,0.959992 -0.404179,0.944457 -0.790546,2.25745 -0.802877,3.2882157 0,0 -0.03744,0.593724 -0.03744,0.593724 -0.012,0.165683 0.02233,0.253357 0.03334,0.4110063 0.0097,0.136347 -0.012,0.286028 0.0507,0.41104 0.09774,0.195351 0.541649,0.530683 0.729803,0.674064 0.74624901,0.569987 1.60438501,0.992895 2.46617401,1.354596 1.135809,0.476779 2.306781,0.786876 3.516571,1.00473 0,0 1.689789,0.20902 1.689789,0.20902 0,0 0.822052,0.04567 0.822052,0.04567 1.5020809,0.01668 2.8822229,-0.168682 4.3386319,-0.53115 1.045388,-0.260025 2.094871,-0.483647 3.105552,-0.86545 0.18862,-0.07068 0.958609,-0.372669 1.052688,-0.504649 0.08678,-0.127345 0.01233,-0.414239 0,-0.564954 -0.03066,-0.46901 -0.04704,-1.011129 -0.184983,-1.4614063 z M 19.221275,7.207395 c -0.0365,0.448009 -0.255759,1.112507 -0.470856,1.507078 -0.101375,0.185351 -0.378149,0.5402847 -0.419249,0.6850317 -0.04747,0.169017 0.03833,0.498281 0.0612,0.6850663 0.06668,0.551686 0.09818,0.854949 0.09818,1.415768 0.44848,-0.300695 1.017527,-0.912486 1.120285,-1.461439 0,0 -0.06667,-1.370098 -0.06667,-1.370098 C 19.512825,8.326303 19.38615,7.485055 19.221267,7.207395 Z m 0.274025,3.836234 c 0,0 -0.568128,0.776374 -0.568128,0.776374 0,0 -0.39185,0.456711 -0.39185,0.456711 0,0 -0.142949,0.86775 -0.142949,0.86775 0,0 -0.175814,0.959058 -0.175814,0.959058 0,0 0.424725,-0.07434 0.424725,-0.07434 0,0 0.314661,-0.656262 0.314661,-0.656262 0,0 0.442082,-1.507078 0.442082,-1.507078 0,0 0.09728,-0.822079 0.09728,-0.822079 z M 0.13130209,11.317655 c 0.296395,2.235981 1.51486801,4.371955 3.19688301,5.852594 0.414687,0.365368 1.41714,1.128042 1.918135,1.311627 0.466745,0.17135 1.760115,0.286028 2.283492,0.280025 0.322898,-0.0033 0.952215,-0.09901 1.278753,-0.164349 0,0 1.2330849,-0.28736 1.2330849,-0.28736 0.724323,-0.239357 1.940967,-0.906554 2.648848,-1.27189 0,0 3.288224,-1.757366 3.288224,-1.757366 0,0 1.050409,-0.62936 1.050409,-0.62936 0.120112,-0.07201 0.435234,-0.240358 0.509222,-0.337501 0.07625,-0.100009 0.105044,-0.312364 0.130146,-0.438873 0.07124,-0.357135 0.133812,-0.731171 0.137012,-1.096073 0,0 -0.68505,0.300362 -0.68505,0.300362 -0.962721,0.363068 -1.971111,0.55352 -2.96854,0.790077 -1.508928,0.358068 -2.212248,0.540283 -3.79059,0.648993 0,0 -0.5480389,0.04167 -0.5480389,0.04167 0,0 -1.096079,0 -1.096079,0 0,0 -0.548036,-0.04167 -0.548036,-0.04167 -1.371922,-0.09434 -2.678534,-0.353965 -3.973275,-0.828478 -0.902433,-0.331032 -1.942796,-0.863616 -2.740186,-1.398401 0,0 -0.77639101,-0.558087 -0.77639101,-0.558087 0,0 -0.548033,-0.41604 -0.548036,-0.41604 z M 17.851188,15.290937 c 0.228822,-0.137012 0.376776,-0.388637 0.456697,-0.639396 -0.367182,0.07934 -0.379055,0.298695 -0.456697,0.639396 z M 7.4841411,19.309888 c 0.339783,0.156681 1.386537,0.273027 1.781125,0.274025 0,0 0.685045,0.04167 0.685045,0.04167 1.6738009,-0.09501 2.8749159,-0.371736 4.3843019,-1.126208 0.443913,-0.222355 1.186957,-0.658095 1.539531,-0.991497 0.310094,-0.293693 0.730259,-0.921153 0.940334,-1.303389 0.170353,-0.309698 0.346181,-0.616559 0.443005,-0.959093 -0.279062,0.108344 -0.690987,0.45351 -0.959069,0.63846 0,0 -1.826792,1.160946 -1.826792,1.160946 -1.381057,0.817478 -2.968998,1.48701 -4.5213109,1.89438 -0.73391,0.192687 -1.710337,0.370837 -2.46617,0.370837 z M 17.805521,15.382245 c 0,0 0,0.04567 0,0.04567 0,0 0.0457,-0.04567 0.0457,-0.04567 0,0 -0.0457,0 -0.0457,0 z"
     id="Selection-0"
     style="fill:url(#linearGradient920);fill-opacity:1;stroke:none;stroke-width:0.0456701" />
</svg>
